<svg width="200" height="200" viewBox="0 0 200 200" fill="none" xmlns="http://www.w3.org/2000/svg">
<path d="M59.5801 101.03C61.4468 110.643 63.2868 120.263 65.1001 129.89C66.3401 136.45 74.2901 136.98 75.2301 130.74C76.6768 121.18 78.1734 111.61 79.7201 102.03C79.8068 101.463 79.8868 101.467 79.9601 102.04C81.5668 114.92 83.0834 127.807 84.5101 140.7C84.7101 142.5 85.0801 143.797 85.6201 144.59C88.1301 148.26 94.1901 146.81 94.6901 142.44C96.5968 125.787 98.6001 108.807 100.7 91.4999C100.807 90.6266 100.913 90.6266 101.02 91.4999C102.967 107.833 104.94 124.383 106.94 141.15C107.77 148.12 116.37 148.17 117 142.49C118.513 129.017 120.093 115.533 121.74 102.04C121.807 101.46 121.887 101.457 121.98 102.03C123.513 111.443 124.993 120.86 126.42 130.28C127.41 136.73 135.02 137.27 136.5 130.86C138.48 122.253 140.403 113.423 142.27 104.37C142.285 104.295 142.324 104.228 142.382 104.178C142.439 104.128 142.512 104.099 142.588 104.096C142.664 104.092 142.739 104.114 142.801 104.159C142.863 104.203 142.909 104.267 142.93 104.34C143.59 106.56 144.78 111.5 147.75 111.5C150.51 111.5 158.29 112.18 160.41 110.86C162.77 109.39 162.91 106.25 161 104.35C158.91 102.26 154.95 103.11 152.12 102.97C151.78 102.957 151.553 102.79 151.44 102.47C149.933 98.0633 148.39 93.6666 146.81 89.2799C145.15 84.6799 141.25 83.3499 137.52 87.0199C137.318 87.216 137.175 87.4658 137.11 87.7399L132.43 108.99C132.263 109.73 132.117 109.727 131.99 108.98C130.01 97.4466 128.19 85.8866 126.53 74.2999C125.92 70.0399 122.87 66.5599 118.37 69.4499C117.177 70.2099 116.53 71.0566 116.43 71.9899C115.09 84.1499 113.643 96.3033 112.09 108.45C112.003 109.117 111.92 109.117 111.84 108.45C109.8 91.8833 107.833 75.3066 105.94 58.7199C105.07 51.1499 96.5601 51.4399 95.6501 59.2799C93.7634 75.5466 91.7901 91.8033 89.7301 108.05C89.6434 108.723 89.5601 108.723 89.4801 108.05C88.1001 96.6433 86.7701 85.2433 85.4901 73.8499C84.6301 66.2299 76.2201 66.7199 75.1101 74.4699C73.5568 85.3299 71.8601 96.1833 70.0201 107.03C69.9068 107.703 69.7834 107.707 69.6501 107.04C68.0901 99.3199 66.6068 91.6033 65.2001 83.8899C64.8601 82.0099 64.3268 80.6866 63.6001 79.9199C61.2401 77.4199 56.2301 78.1999 55.2501 81.7599C53.4701 88.1866 51.7101 94.6499 49.9701 101.15C49.8834 101.477 49.6701 101.65 49.3301 101.67C46.1801 101.84 38.6301 100.62 37.7701 104.75C36.2201 112.15 47.5701 110.23 51.7201 110.24C58.1101 110.25 57.4701 105.28 59.1901 100.99C59.3634 100.557 59.4934 100.57 59.5801 101.03Z" stroke="#808080" stroke-width="2"/>
<path d="M59.1901 100.99C57.4701 105.28 58.1101 110.25 51.7201 110.24C47.5701 110.23 36.2201 112.15 37.7701 104.75C38.6301 100.62 46.1801 101.84 49.3301 101.67C49.6701 101.65 49.8834 101.477 49.9701 101.15C51.7101 94.6499 53.4701 88.1866 55.2501 81.7599C56.2301 78.1999 61.2401 77.4199 63.6001 79.9199C64.3268 80.6866 64.8601 82.0099 65.2001 83.8899C66.6068 91.6033 68.0901 99.3199 69.6501 107.04C69.7834 107.707 69.9068 107.703 70.0201 107.03C71.8601 96.1833 73.5568 85.3299 75.1101 74.4699C76.2201 66.7199 84.6301 66.2299 85.4901 73.8499C86.7701 85.2433 88.1001 96.6433 89.4801 108.05C89.5601 108.723 89.6434 108.723 89.7301 108.05C91.7901 91.8033 93.7634 75.5466 95.6501 59.2799C96.5601 51.4399 105.07 51.1499 105.94 58.7199C107.833 75.3066 109.8 91.8833 111.84 108.45C111.92 109.117 112.003 109.117 112.09 108.45C113.643 96.3033 115.09 84.1499 116.43 71.9899C116.53 71.0566 117.177 70.2099 118.37 69.4499C122.87 66.5599 125.92 70.0399 126.53 74.2999C128.19 85.8866 130.01 97.4466 131.99 108.98C132.117 109.727 132.263 109.73 132.43 108.99L137.11 87.7399C137.175 87.4658 137.318 87.216 137.52 87.0199C141.25 83.3499 145.15 84.6799 146.81 89.2799C148.39 93.6666 149.933 98.0633 151.44 102.47C151.553 102.79 151.78 102.957 152.12 102.97C154.95 103.11 158.91 102.26 161 104.35C162.91 106.25 162.77 109.39 160.41 110.86C158.29 112.18 150.51 111.5 147.75 111.5C144.78 111.5 143.59 106.56 142.93 104.34C142.909 104.267 142.863 104.203 142.801 104.159C142.739 104.114 142.664 104.092 142.588 104.096C142.512 104.099 142.439 104.128 142.382 104.178C142.324 104.228 142.285 104.295 142.27 104.37C140.403 113.423 138.48 122.253 136.5 130.86C135.02 137.27 127.41 136.73 126.42 130.28C124.993 120.86 123.513 111.443 121.98 102.03C121.887 101.457 121.807 101.46 121.74 102.04C120.093 115.533 118.513 129.017 117 142.49C116.37 148.17 107.77 148.12 106.94 141.15C104.94 124.383 102.967 107.833 101.02 91.4999C100.913 90.6266 100.807 90.6266 100.7 91.4999C98.6001 108.807 96.5968 125.787 94.6901 142.44C94.1901 146.81 88.1301 148.26 85.6201 144.59C85.0801 143.797 84.7101 142.5 84.5101 140.7C83.0834 127.807 81.5668 114.92 79.9601 102.04C79.8868 101.467 79.8068 101.463 79.7201 102.03C78.1734 111.61 76.6768 121.18 75.2301 130.74C74.2901 136.98 66.3401 136.45 65.1001 129.89C63.2868 120.263 61.4468 110.643 59.5801 101.03C59.4934 100.57 59.3634 100.557 59.1901 100.99Z" fill="white"/>
</svg>
